<svg version="1.2" xmlns="http://www.w3.org/2000/svg" viewBox="0 0 20 20" width="20" height="20">
	<title>github-142-svg</title>
	<style>
		.s0 { fill: #ffffff } 
	</style>
	<g id="Page-1">
		<g id="Dribbble-Light-Preview">
			<g id="icons">
				<path id="github-[#142]" fill-rule="evenodd" class="s0" d="m10 0c5.5 0 10 4.6 10 10.3 0 4.5-2.9 8.3-6.8 9.7-0.5 0.1-0.7-0.2-0.7-0.5 0-0.3 0-1.5 0-2.8 0-1-0.3-1.6-0.7-1.9 2.2-0.3 4.6-1.1 4.6-5.1 0-1.1-0.4-2-1.1-2.7 0.2-0.3 0.5-1.3 0-2.7 0 0-0.9-0.3-2.8 1q-1.2-0.3-2.5-0.3-1.3 0-2.5 0.3c-1.9-1.3-2.8-1-2.8-1-0.5 1.4-0.2 2.4-0.1 2.7-0.6 0.7-1 1.6-1 2.7 0 3.9 2.4 4.8 4.6 5.1-0.3 0.2-0.6 0.7-0.7 1.4-0.5 0.2-2 0.7-2.9-0.9 0 0-0.5-1-1.5-1.1 0 0-1 0-0.1 0.7 0 0 0.7 0.3 1.1 1.5 0 0 0.6 1.8 3.4 1.2 0 0.8 0 1.6 0 1.9 0 0.3-0.2 0.6-0.7 0.5-3.9-1.4-6.8-5.2-6.8-9.7 0-5.7 4.5-10.3 10-10.3z"/>
			</g>
		</g>
	</g>
</svg>