<svg version="1.2" xmlns="http://www.w3.org/2000/svg" viewBox="0 0 20 20" width="20" height="20">
	<title>instagram-167-svg</title>
	<style>
		.s0 { fill: #ffffff } 
	</style>
	<g id="Page-1">
		<g id="Dribbble-Light-Preview">
			<g id="icons">
				<path id="instagram-[#167]" fill-rule="evenodd" class="s0" d="m18.3 1.7c1.5 1.6 2 3.5 1.6 12.4-0.1 1-0.3 1.8-0.5 2.4-1.4 3.5-4.7 3.8-13.5 3.4-1.1-0.1-1.8-0.3-2.4-0.5-1.4-0.5-2.4-1.6-3-2.9-0.7-2-0.5-9.6-0.4-10.6 0.1-1.6 0.4-3 1.6-4.2 1.1-1.1 2.5-1.5 4.2-1.6 9.7-0.4 11.1 0.4 12.4 1.6zm-0.6 14.1c0.2-0.3 0.3-0.8 0.4-1.8 0.4-8.7-0.1-10-1.1-11-0.8-0.8-1.9-1-3-1.1-8.8-0.4-10 0.1-11 1.1-0.8 0.8-1.1 1.8-1.1 3-0.1 1.1-0.3 8.3 0.3 9.8 0.4 0.9 1 1.6 1.9 1.9 0.4 0.2 0.9 0.3 1.9 0.4 8.8 0.4 10.8 0.1 11.7-2.3zm-2.4-12.3c0.6 0 1.2 0.5 1.2 1.2 0 0.6-0.6 1.2-1.2 1.2-0.7 0-1.2-0.6-1.2-1.2 0-0.7 0.5-1.2 1.2-1.2zm-5.3 1.4c2.8 0 5.1 2.3 5.1 5.1 0 2.8-2.3 5.1-5.1 5.1-2.8 0-5.1-2.3-5.1-5.1 0-2.8 2.3-5.1 5.1-5.1zm0 8.4c1.8 0 3.3-1.5 3.3-3.3 0-1.8-1.5-3.3-3.3-3.3-1.9 0-3.3 1.5-3.3 3.3 0 1.8 1.4 3.3 3.3 3.3z"/>
			</g>
		</g>
	</g>
</svg>