<svg version="1.2" xmlns="http://www.w3.org/2000/svg" viewBox="0 0 20 20" width="20" height="20">
	<title>twitter-154-svg</title>
	<style>
		.s0 { fill: #ffffff } 
	</style>
	<g id="Page-1">
		<g id="Dribbble-Light-Preview">
			<g id="icons">
				<path id="twitter-[#154]" fill-rule="evenodd" class="s0" d="m6.3 18c7.5 0 11.7-6.2 11.7-11.5q0-0.3 0-0.5 1.2-0.9 2-2.1-1.1 0.5-2.4 0.6c0.9-0.5 1.5-1.3 1.8-2.2q-1.2 0.7-2.6 1c-1.5-1.7-4.1-1.7-5.8-0.2-1 1-1.5 2.5-1.2 3.9-3.2-0.2-6.3-1.7-8.4-4.3-1.1 1.9-0.5 4.2 1.3 5.4q-1 0-1.9-0.5v0.1c0 1.9 1.4 3.6 3.3 3.9q-0.9 0.3-1.9 0.1c0.6 1.7 2.1 2.8 3.9 2.8-1.5 1.1-3.3 1.7-5.1 1.7q-0.5 0-1 0c1.9 1.2 4.1 1.8 6.3 1.8z"/>
			</g>
		</g>
	</g>
</svg>